<svg width="114" height="24" viewBox="0 0 114 24" fill="none" xmlns="http://www.w3.org/2000/svg">
<g clip-path="url(#clip0_3260_29943)">
<path d="M13.6451 14.0879C11.272 14.2162 8.89903 14.3487 6.52602 14.4894C6.52602 15.6586 6.52602 16.2442 6.52602 17.4133C9.21116 17.2168 11.8984 17.0367 14.5856 16.8712C14.3479 18.8019 14.1081 20.7325 13.8724 22.6632C9.28144 23.0605 4.69871 23.5054 0.120117 24C0.120117 16 0.120117 8 0.120117 0C4.72972 0 9.34139 0 13.951 0C13.9489 2.31143 13.9469 3.46818 13.9448 5.78169C11.4746 5.83342 9.00445 5.89136 6.53428 5.95344C6.53428 6.9881 6.53428 7.50543 6.53428 8.53802C8.9073 8.45525 11.2824 8.37662 13.6554 8.30212C13.6533 10.6177 13.6513 11.7744 13.6492 14.09L13.6451 14.0879Z" fill="#FF5544"/>
<path d="M20.3362 22.1666C18.6825 14.7812 17.0516 7.39369 15.4434 0H22.4384C22.8725 2.7253 23.2404 5.47956 23.658 8.18831C24.0197 10.5453 24.2884 12.925 24.5385 15.313C24.6005 15.3109 24.6336 15.3088 24.6956 15.3068C24.9892 12.9291 25.3054 10.5515 25.7271 8.20486C26.2149 5.48784 26.5746 2.72737 27.0749 0C29.361 0 31.6493 0 33.9376 0C32.0648 7.21366 30.2106 14.4335 28.3771 21.6575C25.6961 21.8065 23.0151 21.9762 20.3341 22.1666H20.3362Z" fill="#FF5544"/>
<path d="M48.6243 12.9995C46.2471 13.0264 43.87 13.0616 41.4928 13.1009C41.4928 14.1583 41.4928 14.688 41.4908 15.7455C44.1821 15.6855 46.8755 15.6399 49.5669 15.611C49.2816 17.7362 49.1411 18.7998 48.8558 20.9271C44.2545 21.0098 39.6593 21.1443 35.0601 21.3285C35.0704 14.2183 35.0787 7.10812 35.089 -0.00206947C39.6986 -0.00206947 44.3103 -0.00206947 48.9199 -0.00206947C48.9199 2.13347 48.9199 3.20124 48.9178 5.33678C46.4456 5.34713 43.9733 5.36161 41.5032 5.38024C41.5032 6.31557 41.5032 6.78324 41.5011 7.71857C43.8782 7.69374 46.2533 7.67512 48.6305 7.65856C48.6305 9.7941 48.6305 10.8619 48.6263 12.9995H48.6243Z" fill="#FF5544"/>
<path d="M51.3979 20.896C51.4 13.9307 51.4041 6.96534 51.4062 -1.51107e-07H59.1082C59.9764 3.71029 60.859 7.41645 61.6528 11.1433C61.7148 11.1433 61.7478 11.1433 61.8099 11.1433C61.5825 8.05587 61.5039 4.95189 61.4915 1.85618C61.4915 1.1133 61.4915 0.740817 61.4915 -0.00206947H67.699C67.7031 6.99017 67.7093 13.9824 67.7155 20.9747C65.233 20.9229 62.7483 20.8898 60.2657 20.8733C59.3521 16.9953 58.4633 13.1112 57.5103 9.24366C57.469 9.24366 57.4483 9.24366 57.4049 9.24366C57.6302 12.4014 57.5889 15.5696 57.5889 18.7336C57.5889 19.5861 57.5889 20.0103 57.5889 20.8629C55.5259 20.8588 53.4609 20.8691 51.3979 20.8919V20.896Z" fill="#FF5544"/>
<path d="M73.8094 5.39265C72.0585 5.37817 71.1842 5.37196 69.4333 5.36161C69.4333 3.2178 69.4313 2.14382 69.4292 0C74.5556 0 79.6799 0 84.8063 0C84.8104 2.2059 84.8104 3.30885 84.8145 5.51474C83.0968 5.49198 82.2369 5.47957 80.517 5.46094C80.5253 10.775 80.5315 16.089 80.5398 21.403C78.3032 21.3057 76.0666 21.2188 73.828 21.1402C73.8218 15.8903 73.8156 10.6425 73.8114 5.39265H73.8094Z" fill="#FF5544"/>
<path d="M93.422 0C93.4323 7.38334 93.4447 14.7667 93.455 22.1521C91.2122 21.999 88.9674 21.8562 86.7225 21.7217C86.7122 14.4811 86.6998 7.24056 86.6895 0.00206932H93.422V0Z" fill="#FF5544"/>
<path d="M96.147 0H102.722C102.724 2.83704 102.729 5.67201 102.731 8.50905C103.861 5.68857 104.928 2.84532 105.997 0C108.564 0 111.131 0 113.699 0C112.02 3.11019 110.323 6.2121 108.595 9.29539C110.391 14.1852 112.152 19.0854 113.881 24C111.286 23.7124 108.692 23.4454 106.094 23.1992C105.408 20.3828 104.715 17.5706 104.021 14.7563C103.508 15.6648 103.254 16.118 102.741 17.0181C102.743 18.9757 102.745 20.9333 102.747 22.8908C100.56 22.6963 98.3691 22.5142 96.178 22.3507C96.1676 14.9012 96.1573 7.44956 96.147 0Z" fill="#FF5544"/>
</g>
<defs>
<clipPath id="clip0_3260_29943">
<rect width="113.76" height="24" fill="white" transform="translate(0.120117)"/>
</clipPath>
</defs>
</svg>
