<svg width="1079" height="258" viewBox="0 0 1079 258" fill="none" xmlns="http://www.w3.org/2000/svg">
<path d="M48.3002 51.5764L48.3002 210.348H0.666748L0.666748 51.5764L48.1519 51.5764V34.7409C48.1519 18.8277 61.0541 5.93604 76.9567 5.93604L173.326 5.93604V51.5764L48.3002 51.5764Z" fill="#FF6A06" style="fill:#FF6A06;fill:color(display-p3 1.0000 0.4157 0.0235);fill-opacity:1;"/>
<path d="M177.298 210.36L48.3601 210.36L48.3601 256H177.298V210.36Z" fill="#FF6A06" style="fill:#FF6A06;fill:color(display-p3 1.0000 0.4157 0.0235);fill-opacity:1;"/>
<path d="M48.2646 133.524V148.822L164.025 148.822V103.182L78.6174 103.182C61.8561 103.182 48.2753 116.773 48.2753 133.524H48.2646Z" fill="#FF6A06" style="fill:#FF6A06;fill:color(display-p3 1.0000 0.4157 0.0235);fill-opacity:1;"/>
<path d="M173.345 73.4478L220.978 73.4478L264.636 200.456L308.294 73.4478H355.927L286.465 256.031H242.807L173.345 73.4478Z" fill="#FF6A06" style="fill:#FF6A06;fill:color(display-p3 1.0000 0.4157 0.0235);fill-opacity:1;"/>
<path d="M522.568 200.443C513.038 227.827 482.483 257.999 441.2 257.999C391.987 257.999 349.909 216.324 349.909 164.726C349.909 113.127 391.987 71.4517 441.2 71.4517C490.413 71.4517 528.527 109.162 528.527 164.726C528.527 169.093 527.732 173.059 527.339 176.631L526.544 182.589L399.525 182.589C403.893 200.453 417.389 214.342 441.2 214.342C453.509 214.342 461.047 211.161 466.994 207.588C470.175 205.606 472.953 203.22 474.935 200.443H522.568ZM484.858 150.827C480.49 130.588 465.012 115.099 441.2 115.099C417.389 115.099 401.91 130.577 397.543 150.827L484.869 150.827H484.858Z" fill="#FF6A06" style="fill:#FF6A06;fill:color(display-p3 1.0000 0.4157 0.0235);fill-opacity:1;"/>
<path d="M542.46 73.4342H576.194L584.135 91.2981C588.503 87.7253 593.666 84.1525 598.818 81.3749C607.946 76.6147 620.255 71.4517 635.734 71.4517C678.999 71.4517 709.161 101.221 709.161 148.855V256.017H663.521V154.802C663.521 130.991 648.042 115.11 625.81 115.11C603.579 115.11 588.1 130.991 588.1 154.802V256.017H542.46V73.4342Z" fill="#FF6A06" style="fill:#FF6A06;fill:color(display-p3 1.0000 0.4157 0.0235);fill-opacity:1;"/>
<path d="M744.895 115.08H717.108V77.3694H729.013C743.697 77.3694 750.842 70.2238 750.842 55.5404V29.7358L790.535 29.7358V73.3937L830.228 73.3937V115.069H790.535V190.479C790.535 206.36 800.458 216.284 816.329 216.284C820.697 216.284 823.083 215.891 825.065 215.489L828.235 214.301V253.994C826.252 254.789 824.27 255.584 821.885 255.976C817.517 257.164 812.364 257.959 806.406 257.959C770.286 257.959 744.884 232.154 744.884 192.472V115.069L744.895 115.08Z" fill="#FF6A06" style="fill:#FF6A06;fill:color(display-p3 1.0000 0.4157 0.0235);fill-opacity:1;"/>
<path d="M846.074 25.8046C846.074 11.9163 857.98 0 871.868 0C885.756 0 897.673 11.9057 897.673 25.8046C897.673 39.7034 885.767 51.6092 871.868 51.6092C857.969 51.6092 846.074 39.7034 846.074 25.8046ZM848.057 73.4381L893.697 73.4381V256.021H848.057V73.4275V73.4381Z" fill="#FF6A06" style="fill:#FF6A06;fill:color(display-p3 1.0000 0.4157 0.0235);fill-opacity:1;"/>
<path d="M917.499 5.93604L963.139 5.93604V148.826L1018.7 73.416L1070.3 73.416L1004.81 160.742L1078.24 255.999H1026.64L963.139 172.648V255.999H917.499V5.93604Z" fill="#FF6A06" style="fill:#FF6A06;fill:color(display-p3 1.0000 0.4157 0.0235);fill-opacity:1;"/>
</svg>
